<svg width="42" height="42" viewBox="0 0 42 42" xmlns="http://www.w3.org/2000/svg"><title>logo</title><g fill="#0E6A89" fill-rule="evenodd"><path d="M19.09 0h3.82v3.818h-3.82zM6.364 6.364h3.818v3.818H6.364zM12.727 12.727h3.818v3.818h-3.818zM0 12.727h3.818v3.818H0zM6.364 31.818h3.818v3.818H6.364zM6.364 19.09h3.818v3.82H6.364zM0 25.455h3.818v3.818H0zM12.727 25.455h3.818v3.818h-3.818zM12.727 31.818h3.818v3.818h-3.818zM19.09 38.182h3.82V42h-3.82zM19.09 6.364h15.274v3.818H19.09zM19.09 31.818h15.274v3.818H19.09zM19.09 12.727h20.365v3.818H19.09zM19.09 19.09H42v3.82H19.09zM19.09 25.455h20.365v3.818H19.09z"/></g></svg>